.
 
http://www.scenetime.com    -   SceneTime [ We been having it ] !!!


How come you press harder on a remote control when you know the battery is dead? so you better seed to get speed ;)

        Seed back for speed


...................................NFO:.................................................








































          
          
              
              
                    
                    
                    
                    



Poster:
[img]http://leetleech.org/images/61551186872649280698.jpg[/img]

IMDB Link:
http://www.imdb.com/title/tt0112817/

Description:
On the run after murdering a man, accountant William Blake encounters a strange   
Indian named "Nobody" who prepares him for his journey into the spiritual world.

MediaInfo:
General
Complete name                    : Dead.Man.1995.BRRip.Xvid.AC3-SiC.avi
Format                           : AVI
Format/Info                      : Audio Video Interleave
File size                        : 1.29 GiB
Duration                         : 2h 1mn
Overall bit rate                 : 1 531 Kbps

Video
ID                               : 0
Format                           : MPEG-4 Visual
Format profile                   : Advanced Simple@L5
Format settings, BVOP            : Yes
Format settings, QPel            : No
Format settings, GMC             : No warppoints
Format settings, Matrix          : Default (H.263)
Muxing mode                      : Packed bitstream
Codec ID                         : XVID
Codec ID/Hint                    : XviD
Duration                         : 2h 1mn
Bit rate                         : 1 331 Kbps
Width                            : 720 pixels
Height                           : 400 pixels
Display aspect ratio             : 16:9
Frame rate                       : 23.976 fps
Resolution                       : 8 bits
Colorimetry                      : 4:2:0
Scan type                        : Progressive
Bits/(Pixel*Frame)               : 0.193
Stream size                      : 1.13 GiB (87%)
Writing library                  : XviD 64

Audio
ID                               : 1
Format                           : AC-3
Format/Info                      : Audio Coding 3
Format_Settings_ModeExtension    : CM (complete main)
Codec ID                         : 2000
Duration                         : 2h 1mn
Bit rate mode                    : Constant
Bit rate                         : 192 Kbps
Channel(s)                       : 2 channels
Channel positions                : Front: L R
Sampling rate                    : 48.0 KHz
Stream size                      : 166 MiB (13%)
Alignment                        : Aligned on interleaves
Interleave, duration             : 64 ms (1.53 video frames)
Interleave, preload duration     : 192 ms
Title                            : 2ch English

Screenshots:
[img]http://leetleech.org/images/11728439262023285058.png[/img]
[img]http://leetleech.org/images/77327365864701563176.png[/img]
[img]http://leetleech.org/images/87772491405781952446.png[/img]
[img]http://leetleech.org/images/16940139967665168478.png[/img]
[img]http://leetleech.org/images/23455822039000464260.png[/img]

Note :   N/A 

Source : BluRay-SiNNERS Thanks!!!

Encoder: Bezauk

Enjoy!

Respects to CaptainHomey, Cyanide, CM8, Rx, THC, ELEKTRI4KA, 
Killerhz, PA, YeFsTe, BoxSlots, MrRep and everyone in the struggle...